PathFileType	4	(X/Y/Z)	D:\TRACE\spot_10-12-23\spot_arm_motion_2_4-platform.trc
DataRate	CameraRate	NumFrames	NumMarkers	Units	OrigDataRate	OrigDataStartFrame	OrigNumFrames
100.00	100.00	      35	5	mm	100.00	4376	      7000
Frame#	Time	Left_Front			Right_Front			Left_Aft			Right_Aft			Post			
		X1	Y1	Z1	X2	Y2	Z2	X3	Y3	Z3	X4	Y4	Z4	X5	Y5	Z5	

4376	43.750	-825.94934	-52.01476	-653.15485	746.40936	-46.91997	-646.14349	-743.40198	43.96745	481.43851	673.97900	55.71220	566.82349	-42.89364	655.80365	-1034.18945	
4377	43.760	-825.67743	-52.18752	-653.03802	746.72650	-47.42144	-646.30640	-742.83130	44.27312	481.18216	674.47797	56.04325	566.67285	-42.06506	655.15717	-1034.97412	
4378	43.770	-825.20526	-52.56807	-653.17480	747.18121	-48.00324	-646.42609	-742.44836	44.63057	480.68167	674.90924	56.36769	566.50610	-41.87405	654.33313	-1035.64526	
4379	43.780	-824.55457	-53.25430	-653.31659	747.51489	-48.23951	-646.34430	-741.93201	44.94350	480.47461	675.39081	56.67423	566.34406	-41.36336	653.62909	-1036.44080	
4380	43.790	-823.75922	-53.97293	-653.35175	748.39801	-48.85063	-646.33154	-741.39551	45.15080	480.39340	675.06146	56.88738	566.50482	-40.74158	653.04749	-1037.06140	
4381	43.800	-823.38684	-54.16002	-653.46252	749.12848	-49.25878	-646.19507	-740.89484	45.25242	480.33636	675.83539	57.28165	566.34064	-40.18979	652.40167	-1037.51953	
4382	43.810	-822.96143	-54.33326	-653.50934	749.57257	-49.51313	-646.30377	-740.31372	45.52729	480.32059	677.21564	57.69271	566.01257	-39.46037	651.95026	-1038.10486	
4383	43.820	-822.34314	-54.64030	-653.43024	750.06055	-49.74275	-646.36475	-739.60864	45.72746	480.33267	677.45245	57.76155	565.87531	-38.43831	651.31104	-1038.75098	
4384	43.830	-821.62091	-55.03332	-653.44226	750.74042	-50.06558	-646.40613	-739.11572	45.82174	480.20944	678.25726	58.02677	565.67865	-38.36929	651.10382	-1038.98413	
4385	43.840	-821.09760	-55.20135	-653.31866	751.37354	-50.37897	-646.44788	-738.47443	46.00294	480.12631	678.90875	58.16110	565.62439	-37.41647	650.51904	-1039.72559	
4386	43.850	-820.58215	-55.53759	-653.28638	751.93884	-50.57540	-646.52277	-737.77740	46.14872	480.03094	679.82916	58.37962	565.65063	-37.04802	650.24750	-1040.02734	
4387	43.860	-819.58008	-56.13948	-653.38989	752.44800	-50.65319	-646.63959	-737.03632	46.24898	479.95383	680.28845	58.42251	565.61035	-36.54395	649.97974	-1040.42004	
4388	43.870	-818.79602	-56.10471	-653.51599	753.22668	-50.72020	-646.73163	-736.41772	46.32445	479.93179	680.81268	58.45171	565.52875	-35.81337	649.85974	-1040.74634	
4389	43.880	-818.33563	-56.04531	-653.38458	754.12067	-50.60887	-646.66400	-735.63556	46.47818	479.93185	681.60583	58.63701	565.35883	-35.25278	649.76172	-1041.00293	
4390	43.890	-817.66931	-55.97844	-653.51337	754.76141	-50.47614	-646.50616	-734.99847	46.50019	479.92340	682.50061	58.73568	565.36676	-34.47958	649.52594	-1041.14026	
4391	43.900	-816.89185	-55.91418	-653.47577	755.52844	-50.55620	-646.54346	-734.42151	46.53863	479.87708	682.97882	58.76933	565.48053	-33.64801	649.49310	-1041.08411	
4392	43.910	-816.32202	-55.78394	-653.55566	756.24658	-50.68750	-646.75372	-733.65448	46.55463	479.88046	683.68231	58.70878	565.43781	-32.92720	649.57086	-1041.01245	
4393	43.920	-815.51892	-55.75079	-653.49847	757.05225	-50.71409	-646.66687	-732.74921	46.62081	479.91388	684.61353	58.63324	565.50317	-32.12237	649.69580	-1041.03113	
4394	43.930	-814.81598	-55.62262	-653.34814	757.70068	-50.68807	-646.50464	-732.19421	46.57622	479.94696	685.50336	58.58705	565.50153	-31.13457	649.75482	-1041.01807	
4395	43.940	-813.93719	-55.37841	-653.47772	758.56219	-50.50230	-646.60504	-731.24072	46.35643	480.03461	686.10889	58.54485	565.57385	-30.47508	649.86523	-1040.97937	
4396	43.950	-813.01746	-55.38556	-653.61853	759.18951	-50.32672	-646.70740	-730.42670	46.17585	480.03220	687.00128	58.39763	565.51270	-29.72778	650.00848	-1040.80249	
4397	43.960	-812.28339	-55.21170	-653.57422	760.06104	-49.97208	-646.56720	-729.59869	45.96389	480.07620	687.77509	58.20777	565.60699	-28.95388	650.46484	-1040.47791	
4398	43.970	-811.55951	-54.75170	-653.38782	761.14923	-49.82883	-646.35120	-728.70117	45.88262	480.29001	688.58734	58.04181	565.75159	-28.25487	651.06238	-1040.13525	
4399	43.980	-810.68158	-54.45527	-653.33234	761.79675	-49.61959	-646.26563	-727.97028	45.74554	480.30325	689.42468	57.86220	565.85858	-27.53478	651.50281	-1039.72620	
4400	43.990	-809.85144	-54.06441	-653.15161	762.67242	-49.12217	-646.43750	-727.13055	45.47865	480.43219	690.23346	57.50996	565.88983	-26.25503	652.11194	-1039.28503	
4401	44.000	-809.07092	-53.44911	-653.14941	763.60901	-48.67025	-646.40326	-726.16602	45.24504	480.52301	691.34894	57.27851	566.03467	-25.54361	652.53741	-1038.95862	
4402	44.010	-808.06580	-53.19747	-653.32703	764.40082	-48.23908	-646.18250	-725.44812	44.85184	480.59802	692.14484	56.87776	566.14752	-24.78625	653.33002	-1038.39282	
4403	44.020	-806.93774	-52.90335	-653.25208	765.23047	-47.94530	-646.38544	-724.49115	44.48397	480.78378	692.85931	56.47270	566.32886	-23.65809	654.16821	-1037.75415	
4404	44.030	-806.05341	-52.52812	-653.09174	766.11938	-47.28612	-646.41351	-723.58801	44.31081	480.83786	693.94519	56.16107	566.47168	-22.89831	654.73663	-1037.23938	
4405	44.040	-805.12708	-52.09308	-652.94788	767.27789	-46.73466	-645.96497	-722.61194	43.96076	480.98438	695.02411	55.84849	566.78021	-22.06560	655.66443	-1036.41895	
4406	44.050	-804.21857	-51.56758	-652.82220	768.10785	-46.32187	-645.90192	-721.58032	43.53721	481.05582	695.73438	55.32972	566.89307	-20.94325	656.53003	-1035.82751	
4407	44.060	-803.40814	-50.67875	-652.87946	769.11340	-45.72610	-645.91266	-720.51947	43.15315	481.21646	696.80310	55.02618	567.01917	-20.10802	657.27454	-1034.94104	
4408	44.070	-802.33850	-50.22575	-652.60352	770.04065	-45.26290	-645.86279	-719.62030	42.83248	481.41144	697.76447	54.54466	567.25793	-19.39700	658.71942	-1034.56519	
4409	44.080	-801.01929	-49.72385	-652.71729	771.12024	-44.33841	-645.59619	-718.71753	42.36278	481.69189	698.67847	54.11544	567.34564	-18.13161	659.28607	-1033.33179	
4410	44.090	-800.21039	-49.05527	-652.54907	772.00793	-43.79032	-645.70184	-717.65631	41.94628	482.11099	699.93451	53.61812	567.63147	-16.94958	660.40912	-1032.48535	
